<svg class="svg-icon" style="width: 1em; height: 1em;vertical-align: middle;fill: currentColor;overflow: hidden;" viewBox="0 0 1024 1024" version="1.1" xmlns="http://www.w3.org/2000/svg"><path d="M959.9 670.3c-5.8 0-11.3 1.4-16.1 4l-0.2-0.2c-45.1 21.9-95.8 34.1-149.2 34.1-189.3 0-342.8-153.5-342.8-342.8 0-50.9 11.1-99.2 31-142.6 2.1-4.5 3.2-9.3 3.2-14.6 0-19-15.4-34.4-34.4-34.4-5.2 0-10.1 1.2-14.6 3.2C272.4 237.4 155 395.4 155 580.7c0 237.3 192.3 429.6 429.5 429.6 189.5 0 350.3-122.7 407.4-292.9 1.5-3.9 2.4-8.1 2.4-12.6 0-19.1-15.4-34.5-34.4-34.5z" fill="#7238F2" /><path d="M463.2 91.3a2.4 12.8 0 1 0 4.8 0 2.4 12.8 0 1 0-4.8 0Z" fill="#E61F19" /><path d="M452.340764 95.315749a12.8 2.4 60 1 0 4.156922-2.4 12.8 2.4 60 1 0-4.156922 2.4Z" fill="#E61F19" /><path d="M444.946651 104.209262a12.8 2.4 30 1 0 2.4-4.156922 12.8 2.4 30 1 0-2.4 4.156922Z" fill="#E61F19" /><path d="M430.2 113.1a12.8 2.4 0 1 0 25.6 0 12.8 2.4 0 1 0-25.6 0Z" fill="#E61F19" /><path d="M434.67998 130.585771a2.4 12.8 60 1 0 22.17025-12.8 2.4 12.8 60 1 0-22.17025 12.8Z" fill="#E61F19" /><path d="M447.332038 143.587412a2.4 12.8 30 1 0 12.8-22.17025 2.4 12.8 30 1 0-12.8 22.17025Z" fill="#E61F19" /><path d="M462.4 135.7a2.4 12.8 0 1 0 4.8 0 2.4 12.8 0 1 0-4.8 0Z" fill="#E61F19" /><path d="M473.806666 134.126493a12.8 2.4 60 1 0 4.156922-2.4 12.8 2.4 60 1 0-4.156922 2.4Z" fill="#E61F19" /><path d="M482.989627 127.044494a12.8 2.4 30 1 0 2.4-4.156922 12.8 2.4 30 1 0-2.4 4.156922Z" fill="#E61F19" /><path d="M474.6 113.9a12.8 2.4 0 1 0 25.6 0 12.8 2.4 0 1 0-25.6 0Z" fill="#E61F19" /><path d="M473.490724 109.119869a2.4 12.8 60 1 0 22.170251-12.8 2.4 12.8 60 1 0-22.170251 12.8Z" fill="#E61F19" /><path d="M470.167271 105.544436a2.4 12.8 30 1 0 12.8-22.17025 2.4 12.8 30 1 0-12.8 22.17025Z" fill="#E61F19" /><path d="M547.4 15.6m-15.6 0a15.6 15.6 0 1 0 31.2 0 15.6 15.6 0 1 0-31.2 0Z" fill="#2C65AF" /><path d="M318.8 79.8c-2.4 0-4.3-2-4.3-4.3V27.8c0-2.4 2-4.3 4.3-4.3 2.4 0 4.3 2 4.3 4.3v47.7c0 2.3-1.9 4.3-4.3 4.3z" fill="#7CCBE2" /><path d="M342.6 56h-47.7c-2.4 0-4.3-2-4.3-4.3 0-2.4 2-4.3 4.3-4.3h47.7c2.4 0 4.3 2 4.3 4.3 0.1 2.3-1.9 4.3-4.3 4.3z" fill="#7CCBE2" /><path d="M691.2 222.7c-6-2.6-12.4-1.1-14.2 3.2l-36.8 85.5c-1.9 4.4 1.4 10 7.4 12.6 6 2.6 12.4 1.1 14.2-3.2l36.8-85.5c1.9-4.3-1.4-10-7.4-12.6z" fill="#2C65AF" /><path d="M618.7 251.5c-2.6 6-1.1 12.4 3.2 14.2l85.5 36.8c4.4 1.9 10-1.4 12.6-7.4 2.6-6 1.1-12.4-3.2-14.2l-85.5-36.8c-4.4-1.8-10 1.5-12.6 7.4z" fill="#2C65AF" /><path d="M629.8 157.7c-21.8 0-39.6-17.6-39.6-39.2s17.8-39.2 39.6-39.2 39.6 17.6 39.6 39.2-17.8 39.2-39.6 39.2z m0-68c-16.1 0-29.1 12.9-29.1 28.9s13.1 28.9 29.1 28.9c16.1 0 29.1-12.9 29.1-28.9s-13-28.9-29.1-28.9z" fill="#E62A52" /><path d="M213.8 553.2c-0.4 0-0.8 0-1.3-0.1-7.5-0.7-13.1-7.4-12.4-15 4.3-46.9 15.7-91.6 33.8-132.6 3.1-6.9 11.2-10.1 18.1-7 6.9 3.1 10.1 11.2 7 18.1-16.9 38.4-27.5 80.1-31.6 124.1-0.5 7.1-6.5 12.5-13.6 12.5zM274 373c-2.5 0-4.9-0.7-7.2-2.1-6.4-4-8.5-12.5-4.5-18.9 9.5-15.3 19.9-30.1 30.9-43.9 4.7-5.9 13.4-6.9 19.3-2.1 5.9 4.7 6.9 13.4 2.1 19.3-10.3 12.9-20.1 26.8-29 41.2-2.5 4.2-7 6.5-11.6 6.5z" fill="#FFFFFF" /><path d="M515.8 1024c-40.3 0-80.3-5.4-118.8-16.1-37.3-10.4-73.2-25.7-106.6-45.4-6.5-3.8-8.7-12.3-4.8-18.8 3.8-6.5 12.3-8.7 18.8-4.8 63.8 37.8 136.9 57.7 211.5 57.7 179 0 337.5-114 394.4-283.6l0.3-0.7c0.9-2.4 1.4-4.9 1.4-7.5 0-11.4-9.2-20.6-20.6-20.6-3.4 0-6.7 0.8-9.7 2.4l-8.5 4.5-0.5-0.5c-46.2 20.9-95.6 31.6-146.9 31.6-40.3 0-80-6.7-117.7-19.9-36.5-12.8-70.5-31.3-101.2-55.2-30.3-23.6-56.5-51.8-77.8-83.8-21.7-32.5-37.7-68-47.8-105.6-2-7.3 2.4-14.8 9.7-16.8 7.3-2 14.8 2.4 16.8 9.7 38.3 143.7 169 244.1 318 244.1 50.2 0 98.4-11 143.3-32.8l8.3-4 0.7 0.6c4.3-1.2 8.8-1.9 13.3-1.9 26.6 0 48.1 21.6 48.1 48.1 0 5.9-1.1 11.8-3.2 17.3-14.6 43.4-35.7 84.1-62.9 121-26.9 36.6-59.2 68.8-95.9 95.6-37.2 27.2-78.1 48.3-121.5 62.7-45.3 15.1-92.3 22.7-140.2 22.7z m-258.1-86.2c-2.9 0-5.8-0.9-8.2-2.7-20.3-15.3-39.5-32.5-56.9-51.1-5.2-5.6-4.9-14.2 0.6-19.4 5.6-5.2 14.2-4.9 19.4 0.6 16.4 17.4 34.4 33.6 53.4 48 6 4.6 7.3 13.2 2.7 19.2-2.7 3.5-6.9 5.4-11 5.4z m-88.2-89.2c-4.2 0-8.4-1.9-11.1-5.6-27.4-37.2-48.6-78.3-63.2-121.9-15-45.1-22.7-92.4-22.7-140.4 0-92.6 28.3-181.4 81.8-256.6 25.8-36.2 56.7-68.3 92-95.4 35.5-27.2 74.7-48.8 116.5-64.2 6.3-2.8 12.9-4.3 19.8-4.3 26.6 0 48.1 21.6 48.1 48.1 0 3-0.3 6-0.8 9l1.2 0.8-4.8 10.6c-19.7 43.1-29.7 89.1-29.7 136.9 0 7.6-6.2 13.7-13.7 13.7s-13.7-6.2-13.7-13.7c0-47.8 9.3-94.1 27.6-137.7l-0.2-0.2 4.9-10.6c1.3-2.7 1.9-5.7 1.9-8.7 0-11.4-9.2-20.6-20.6-20.6-3 0-6 0.7-8.7 1.9l-0.5 0.3-0.5 0.2C209.7 249.9 100 406.8 100 580.7c0 89.3 27.9 174.4 80.6 246.1 4.5 6.1 3.2 14.7-2.9 19.2-2.5 1.8-5.4 2.6-8.2 2.6z" fill="" /></svg>